<?xml version="1.0" encoding="UTF-8"?>
<svg id="Layer_2" data-name="Layer 2" xmlns="http://www.w3.org/2000/svg" viewBox="0 0 6 9.73">
  <defs>
    <style>
      .cls-1 {
        fill: #52b88c;
      }
    </style>
  </defs>
  <g id="_レイヤー_3" data-name="レイヤー 3">
    <path class="cls-1" d="m.33,9.4c-.44-.44-.44-1.16,0-1.6H.33l2.93-2.93L.33,1.94H.33C-.11,1.49-.11.78.33.33H.33C.78-.11,1.49-.11,1.94.33h0l3.73,3.73c.21.21.33.5.33.8h0c0,.3-.12.59-.33.8h0l-3.73,3.73c-.22.22-.51.33-.8.33h0c-.29,0-.58-.11-.8-.33H.33Z"/>
  </g>
</svg>